<svg xmlns="http://www.w3.org/2000/svg" xmlns:xlink="http://www.w3.org/1999/xlink" xmlns:xodm="http://www.corel.com/coreldraw/odm/2003">
<defs>
	<symbol viewBox="0 0 22 23" fill="none" id="icon-sun">
		<path d="M11 1.5V3.5M11 19.5V21.5M3 11.5H1M5.31412 5.81412L3.8999 4.3999M16.6859 5.81412L18.1001 4.3999M5.31412 17.19L3.8999 18.6042M16.6859 17.19L18.1001 18.6042M21 11.5H19M16 11.5C16 14.2614 13.7614 16.5 11 16.5C8.23858 16.5 6 14.2614 6 11.5C6 8.73858 8.23858 6.5 11 6.5C13.7614 6.5 16 8.73858 16 11.5Z" stroke="white" stroke-width="2" stroke-linecap="round" stroke-linejoin="round"/>
	</symbol>
	<symbol viewBox="0 0 22 23" fill="none" id="icon-sun-black">
		<path d="M11 1.5V3.5M11 19.5V21.5M3 11.5H1M5.31412 5.81412L3.8999 4.3999M16.6859 5.81412L18.1001 4.3999M5.31412 17.19L3.8999 18.6042M16.6859 17.19L18.1001 18.6042M21 11.5H19M16 11.5C16 14.2614 13.7614 16.5 11 16.5C8.23858 16.5 6 14.2614 6 11.5C6 8.73858 8.23858 6.5 11 6.5C13.7614 6.5 16 8.73858 16 11.5Z" stroke="#292929" stroke-width="2" stroke-linecap="round" stroke-linejoin="round"/>
	</symbol>
	<symbol viewBox="0 0 22 23" fill="none" id="icon-message">
		<path d="M5.09436 10.2288C5.03221 9.82823 4.99996 9.41786 4.99996 9C4.99996 4.58172 8.60525 1 13.0526 1C17.4999 1 21.1052 4.58172 21.1052 9C21.1052 9.99807 20.9213 10.9535 20.5852 11.8345C20.5154 12.0175 20.4804 12.109 20.4646 12.1804C20.4489 12.2512 20.4428 12.301 20.4411 12.3735C20.4394 12.4466 20.4493 12.5272 20.4692 12.6883L20.8717 15.9585C20.9153 16.3125 20.9371 16.4895 20.8782 16.6182C20.8266 16.731 20.735 16.8205 20.6211 16.8695C20.4911 16.9254 20.3146 16.8995 19.9617 16.8478L16.7765 16.3809C16.6101 16.3565 16.527 16.3443 16.4512 16.3448C16.3763 16.3452 16.3245 16.3507 16.2511 16.3661C16.177 16.3817 16.0823 16.4172 15.893 16.4881C15.0097 16.819 14.0524 17 13.0526 17C12.6344 17 12.2237 16.9683 11.8227 16.9073M6.63158 21C9.59648 21 12 18.5376 12 15.5C12 12.4624 9.59648 10 6.63158 10C3.66668 10 1.26316 12.4624 1.26316 15.5C1.26316 16.1106 1.36028 16.6979 1.53955 17.2467C1.61533 17.4787 1.65322 17.5947 1.66566 17.6739C1.67864 17.7567 1.68091 17.8031 1.67608 17.8867C1.67145 17.9668 1.65141 18.0573 1.61134 18.2383L1 21L3.9948 20.591C4.15827 20.5687 4.24 20.5575 4.31137 20.558C4.38652 20.5585 4.42641 20.5626 4.50011 20.5773C4.5701 20.5912 4.67416 20.6279 4.88227 20.7014C5.43059 20.8949 6.01911 21 6.63158 21Z" stroke="#B5B5B5" stroke-width="2" stroke-linecap="round" stroke-linejoin="round"/>
	</symbol>
	<symbol viewBox="0 0 22 23" fill="none" id="icon-eye">
		<path d="M21.335 11.4069L22.2682 11.0474L21.335 11.4069ZM21.335 12.5932L20.4018 12.2337L21.335 12.5932ZM2.66492 11.4068L1.73175 11.0474L2.66492 11.4068ZM2.66492 12.5932L1.73175 12.9526L2.66492 12.5932ZM3.5981 11.7663C4.89784 8.39171 8.17084 6 12 6V4C7.31641 4 3.31889 6.92667 1.73175 11.0474L3.5981 11.7663ZM12 6C15.8291 6 19.1021 8.39172 20.4018 11.7663L22.2682 11.0474C20.681 6.92668 16.6835 4 12 4V6ZM20.4018 12.2337C19.1021 15.6083 15.8291 18 12 18V20C16.6835 20 20.681 17.0733 22.2682 12.9526L20.4018 12.2337ZM12 18C8.17084 18 4.89784 15.6083 3.5981 12.2337L1.73175 12.9526C3.31889 17.0733 7.31641 20 12 20V18ZM20.4018 11.7663C20.4597 11.9165 20.4597 12.0835 20.4018 12.2337L22.2682 12.9526C22.5043 12.3396 22.5043 11.6604 22.2682 11.0474L20.4018 11.7663ZM1.73175 11.0474C1.49567 11.6604 1.49567 12.3396 1.73175 12.9526L3.5981 12.2337C3.54022 12.0835 3.54022 11.9165 3.5981 11.7663L1.73175 11.0474Z" fill="#B5B5B5"/>
		<circle cx="12" cy="12" r="3" stroke="#B5B5B5" stroke-width="2" stroke-linecap="round" stroke-linejoin="round"/>
	</symbol>
	<symbol viewBox="0 0 22 23" fill="none" id="icon-eye-white">
		<path d="M21.335 11.4069L22.2682 11.0474L21.335 11.4069ZM21.335 12.5932L20.4018 12.2337L21.335 12.5932ZM2.66492 11.4068L1.73175 11.0474L2.66492 11.4068ZM2.66492 12.5932L1.73175 12.9526L2.66492 12.5932ZM3.5981 11.7663C4.89784 8.39171 8.17084 6 12 6V4C7.31641 4 3.31889 6.92667 1.73175 11.0474L3.5981 11.7663ZM12 6C15.8291 6 19.1021 8.39172 20.4018 11.7663L22.2682 11.0474C20.681 6.92668 16.6835 4 12 4V6ZM20.4018 12.2337C19.1021 15.6083 15.8291 18 12 18V20C16.6835 20 20.681 17.0733 22.2682 12.9526L20.4018 12.2337ZM12 18C8.17084 18 4.89784 15.6083 3.5981 12.2337L1.73175 12.9526C3.31889 17.0733 7.31641 20 12 20V18ZM20.4018 11.7663C20.4597 11.9165 20.4597 12.0835 20.4018 12.2337L22.2682 12.9526C22.5043 12.3396 22.5043 11.6604 22.2682 11.0474L20.4018 11.7663ZM1.73175 11.0474C1.49567 11.6604 1.49567 12.3396 1.73175 12.9526L3.5981 12.2337C3.54022 12.0835 3.54022 11.9165 3.5981 11.7663L1.73175 11.0474Z" fill="#fff"/>
		<circle cx="12" cy="12" r="3" stroke="#fff" stroke-width="2" stroke-linecap="round" stroke-linejoin="round"/>
	</symbol>
	<symbol viewBox="0 0 18 15" fill="none" id="icon-arrow-right">
		<path class="hover" d="M1 7.5L17 7.5M17 7.5L11 13.5M17 7.5L11 1.5" stroke="#B5B5B5" stroke-width="2" stroke-linecap="round" stroke-linejoin="round"/>
	</symbol>
	<symbol viewBox="0 0 18 15" fill="none" id="icon-arrow-right-hover">
		<path d="M1 7.5L17 7.5M17 7.5L11 13.5M17 7.5L11 1.5" stroke="#4EB891" stroke-width="2" stroke-linecap="round" stroke-linejoin="round"/>
	</symbol>
	<symbol viewBox="0 0 18 15" fill="none" id="icon-arrow-left">
		<path d="M17 7.5H1M1 7.5L7 1.5M1 7.5L7 13.5" stroke="#B5B5B5" stroke-width="2" stroke-linecap="round" stroke-linejoin="round"/>
	</symbol>
	<symbol viewBox="0 0 18 15" fill="none" id="icon-arrow-left-hover">
		<path d="M17 7.5H1M1 7.5L7 1.5M1 7.5L7 13.5" stroke="#4EB891" stroke-width="2" stroke-linecap="round" stroke-linejoin="round"/>
	</symbol>
	<symbol viewBox="0 0 24 24" fill="none" id="icon-search">
		<circle cx="10" cy="10" r="6" stroke="#474747" stroke-width="2" stroke-linecap="round" stroke-linejoin="round"/>
		<path d="M14.5 14.5L19 19" stroke="#474747" stroke-width="2" stroke-linecap="round" stroke-linejoin="round"/>
	</symbol>
	<symbol viewBox="0 0 512 512" fill="none" id="icon-moon">
		<path fill="#fff" d='M283.211 512c78.962 0 151.079-35.925 198.857-94.792 7.068-8.708-.639-21.43-11.562-19.35-124.203 23.654-238.262-71.576-238.262-196.954 0-72.222 38.662-138.635 101.498-174.394 9.686-5.512 7.25-20.197-3.756-22.23A258.156 258.156 0 0 0 283.211 0c-141.309 0-256 114.511-256 256 0 141.309 114.511 256 256 256z' />
	</symbol>
	<symbol viewBox="0 0 24 24" fill="none" id="clock-white">
		<circle cx="12" cy="12" r="9" stroke="white" stroke-width="2" stroke-linecap="round" stroke-linejoin="round"/>
		<path d="M12 6.5V12L16 14" stroke="white" stroke-width="2" stroke-linecap="round" stroke-linejoin="round"/>
	</symbol>
	<symbol viewBox='0 0 24 24' fill='none' stroke='#1a8df8'
		stroke-width='2' stroke-linecap='round' stroke-linejoin='round' id="download">
		<path d='M21 15v4a2 2 0 0 1-2 2H5a2 2 0 0 1-2-2v-4'></path>
		<polyline points='7 10 12 15 17 10'></polyline>
		<line x1='12' y1='15' x2='12' y2='3'></line>
	</symbol>
</defs>
</svg>