<svg width="30" height="30" viewBox="0 0 30 30" fill="none" xmlns="http://www.w3.org/2000/svg">
<path d="M13.9549 5.89328L14.6507 4.7498C15.0801 4.03512 16.0379 3.79417 16.7895 4.20256C17.5411 4.61095 17.7944 5.52165 17.365 6.23632L10.6608 17.2709H15.5096C17.0815 17.2709 17.9619 19.027 17.2791 20.2439H3.06331C2.19576 20.2439 1.5 19.5824 1.5 18.7574C1.5 17.9325 2.19576 17.2709 3.06331 17.2709H7.04887L12.1511 8.86224L10.5577 6.23224C10.1282 5.51756 10.3816 4.61503 11.1332 4.19848C11.8848 3.79009 12.834 4.03104 13.272 4.74571L13.9549 5.89328ZM7.92501 21.7754L6.42183 24.2543C5.99235 24.969 5.03462 25.2099 4.28303 24.8015C3.53144 24.3931 3.27804 23.4824 3.70752 22.7678L4.82417 20.93C6.08684 20.5584 7.1133 20.8443 7.92501 21.7754ZM20.8695 17.2791H24.9367C25.8042 17.2791 26.5 17.9406 26.5 18.7656C26.5 19.5905 25.8042 20.2521 24.9367 20.2521H22.6776L24.2023 22.7678C24.6318 23.4824 24.3784 24.385 23.6268 24.8015C22.8752 25.2099 21.926 24.969 21.488 24.2543C18.9197 20.0193 16.9913 16.8503 15.7115 14.7389C14.4016 12.5908 15.3378 10.4345 16.2612 9.70351C17.2877 11.3779 18.8209 13.9058 20.8695 17.2791Z" fill="white"/>
</svg>
